<?xml version="1.0" standalone="no"?>
<!DOCTYPE svg PUBLIC "-//W3C//DTD SVG 20010904//EN"
 "http://www.w3.org/TR/2001/REC-SVG-20010904/DTD/svg10.dtd">
<svg version="1.0" xmlns="http://www.w3.org/2000/svg"
 width="225.000000pt" height="225.000000pt" viewBox="0 0 225.000000 225.000000"
 preserveAspectRatio="xMidYMid meet">
<metadata>
Created by potrace 1.14, written by Peter Selinger 2001-2017
</metadata>
<g transform="translate(0.000000,225.000000) scale(0.100000,-0.100000)"
fill="#000000" stroke="none">
<path d="M696 1645 c-21 -7 -53 -27 -70 -43 -17 -17 -48 -33 -69 -36 -45 -8
-105 -58 -123 -103 -19 -44 -18 -117 2 -156 9 -18 110 -126 224 -242 177 -178
209 -216 215 -247 8 -42 -1 -104 -15 -113 -20 -12 -71 30 -225 185 -88 89
-173 168 -189 177 -63 33 -141 -15 -141 -88 0 -37 8 -47 155 -195 85 -85 168
-162 184 -171 20 -10 48 -14 92 -11 53 3 70 9 103 36 22 18 51 32 66 32 66 0
144 65 164 137 13 47 13 49 0 98 -9 33 -51 81 -229 260 -233 236 -248 258
-235 335 5 31 11 40 26 40 37 0 74 -29 204 -160 138 -138 167 -156 227 -139
17 5 44 21 59 35 l28 27 35 -31 c38 -33 90 -48 128 -37 12 4 85 69 161 143
l137 136 0 -264 c0 -245 2 -267 20 -297 41 -67 149 -63 185 7 14 26 16 67 13
285 l-3 254 -29 30 c-35 36 -86 55 -127 47 -26 -5 -36 0 -68 34 -33 34 -44 40
-80 40 -23 0 -52 -5 -64 -11 -12 -6 -86 -75 -164 -152 l-143 -141 -147 146
c-117 115 -156 148 -188 157 -51 14 -71 13 -119 -4z m127 -29 c18 -8 94 -77
170 -153 l138 -140 -37 -32 c-63 -55 -83 -46 -248 117 -78 76 -156 144 -174
152 -27 11 -30 15 -20 28 33 39 114 53 171 28z m761 -28 l28 -31 -149 -149
c-138 -136 -152 -148 -186 -148 -27 0 -46 8 -72 32 l-36 31 138 140 c76 76
152 145 168 152 40 18 74 10 109 -27z m166 -55 c16 -9 33 -27 39 -40 7 -15 11
-114 11 -269 l0 -245 -25 -24 c-32 -33 -78 -33 -110 0 l-25 24 0 280 c0 214 3
281 13 284 26 11 70 6 97 -10z m-1165 -4 c-11 -17 -7 -107 6 -131 7 -13 108
-122 226 -243 226 -233 242 -257 229 -329 -11 -60 -82 -126 -134 -126 -17 0
-18 4 -10 43 7 29 7 55 -2 87 -10 39 -39 73 -225 260 -232 234 -245 254 -225
332 12 42 53 96 84 108 30 12 58 12 51 -1z m24 -653 c97 -95 189 -180 206
-189 l29 -15 -34 -21 c-48 -29 -91 -35 -137 -21 -52 17 -343 308 -343 344 0
38 37 76 73 76 27 0 55 -24 206 -174z"/>
<path d="M1654 821 c-29 -18 -54 -63 -54 -98 0 -8 7 -30 16 -49 41 -85 167
-85 208 0 20 42 20 57 2 101 -26 61 -110 84 -172 46z m101 -15 c54 -23 69 -70
40 -125 -40 -78 -165 -45 -165 44 0 39 17 65 53 80 40 18 32 17 72 1z"/>
</g>
</svg>
